<?xml version="1.0" encoding="UTF-8"?>
<svg id="Layer_2" data-name="Layer 2" xmlns="http://www.w3.org/2000/svg" xmlns:xlink="http://www.w3.org/1999/xlink" viewBox="0 0 733.91 199.87">
  <defs>
    <style>
      .cls-1, .cls-2, .cls-3 {
        isolation: isolate;
      }

      .cls-1, .cls-3 {
        font-family: PTSerif-Regular, 'PT Serif';
        font-size: 116.52px;
      }

      .cls-4 {
        fill: url(#linear-gradient-10);
      }

      .cls-4, .cls-5, .cls-6, .cls-7, .cls-8, .cls-9, .cls-10, .cls-11, .cls-12 {
        stroke-width: 0px;
      }

      .cls-5 {
        fill: url(#linear-gradient-4);
      }

      .cls-6 {
        fill: url(#linear-gradient-2);
      }

      .cls-7 {
        fill: url(#linear-gradient-3);
      }

      .cls-8 {
        fill: url(#linear-gradient-8);
      }

      .cls-9 {
        fill: url(#linear-gradient-9);
      }

      .cls-10 {
        fill: url(#linear-gradient-7);
      }

      .cls-11 {
        fill: url(#linear-gradient-5);
      }

      .cls-12 {
        fill: url(#linear-gradient-6);
      }

      .cls-3 {
        letter-spacing: -.12em;
      }

      .cls-13 {
        fill: url(#linear-gradient);
        stroke: #adbfed;
        stroke-miterlimit: 10;
      }
    </style>
    <linearGradient id="linear-gradient" x1=".5" y1="-330.67" x2="199.34" y2="-330.67" gradientTransform="translate(0 -230.73) scale(1 -1)" gradientUnits="userSpaceOnUse">
      <stop offset="0" stop-color="#adbfed"/>
      <stop offset="1" stop-color="#fac3eb"/>
    </linearGradient>
    <linearGradient id="linear-gradient-2" x1="235.02" y1="-146.17" x2="235.23" y2="-523.35" gradientTransform="translate(0 -230.73) scale(1 -1)" gradientUnits="userSpaceOnUse">
      <stop offset=".46" stop-color="#adbfed"/>
      <stop offset=".49" stop-color="#c5c0ec"/>
      <stop offset=".58" stop-color="#fac3eb"/>
    </linearGradient>
    <linearGradient id="linear-gradient-3" x1="293.19" y1="-146.14" x2="293.4" y2="-523.31" xlink:href="#linear-gradient-2"/>
    <linearGradient id="linear-gradient-4" x1="358.25" y1="-146.1" x2="358.46" y2="-523.28" xlink:href="#linear-gradient-2"/>
    <linearGradient id="linear-gradient-5" x1="413.84" y1="-146.07" x2="414.05" y2="-523.25" xlink:href="#linear-gradient-2"/>
    <linearGradient id="linear-gradient-6" x1="468.26" y1="-146.04" x2="468.47" y2="-523.22" xlink:href="#linear-gradient-2"/>
    <linearGradient id="linear-gradient-7" x1="525.93" y1="-146.01" x2="526.14" y2="-523.19" xlink:href="#linear-gradient-2"/>
    <linearGradient id="linear-gradient-8" x1="577.25" y1="-145.98" x2="577.46" y2="-523.16" xlink:href="#linear-gradient-2"/>
    <linearGradient id="linear-gradient-9" x1="641.14" y1="-145.95" x2="641.35" y2="-523.12" xlink:href="#linear-gradient-2"/>
    <linearGradient id="linear-gradient-10" x1="705.29" y1="-145.91" x2="705.5" y2="-523.09" xlink:href="#linear-gradient-2"/>
  </defs>
  <g id="Capa_1" data-name="Capa 1">
    <g>
      <path class="cls-13" d="m192.03,1l-21.05,9.58c-1.34.62-2.59,1.47-3.65,2.53l-34.3,34.31L14.94,33.26c-2.13-.25-4.3.48-5.81,2.01l-6.57,6.57c-3.48,3.48-2.4,9.37,2.09,11.38l84.64,37.94-24.3,24.3H22.55c-1.87,0-3.65.75-4.98,2.05l-3.55,3.56c-3.52,3.52-2.36,9.47,2.2,11.42l35.81,15.34,15.34,35.81c1.95,4.56,7.92,5.72,11.42,2.2l3.56-3.56c1.33-1.33,2.05-3.11,2.05-4.98v-42.44l24.3-24.3,37.94,84.65c2.01,4.5,7.9,5.58,11.38,2.09l6.57-6.57c1.54-1.54,2.26-3.67,2.01-5.81l-14.18-118.1,34.31-34.31c1.06-1.06,1.91-2.28,2.53-3.65l9.58-21.05c2.01-4.33-2.47-8.83-6.84-6.84l.02.02Z"/>
      <g>
        <g class="cls-2">
          <text class="cls-3" transform="translate(195.26 154.47)"><tspan x="0" y="0">V</tspan></text>
          <text class="cls-1" transform="translate(264.35 154.47)"><tspan x="0" y="0">enturana</tspan></text>
        </g>
        <g>
          <path class="cls-6" d="m258.76,79.2c-1.86-.38-3.61-.84-5.24-1.34s-3.23-1.03-4.78-1.57v-3.38h26.22v3.38c-2.25,1.25-5.05,2.21-8.39,2.91l-26.33,75.27-6.41,1.4-29.71-76.67c-1.55-.38-3.06-.84-4.54-1.34s-2.91-1.03-4.31-1.57v-3.38h30.88v3.38c-1.32.55-2.8,1.07-4.43,1.57s-3.34.96-5.13,1.34l19.92,53.25,2.45,9.32h.23l2.33-9.55,17.24-53.01Z"/>
          <path class="cls-7" d="m316.32,146.31c-.62,1.32-1.6,2.56-2.91,3.73s-2.83,2.18-4.54,3.03-3.58,1.54-5.59,2.04-4.08.76-6.18.76c-4.58,0-8.62-.72-12.12-2.16s-6.41-3.5-8.74-6.18-4.1-5.88-5.3-9.61c-1.21-3.73-1.81-7.92-1.81-12.58,0-9.94,2.3-17.51,6.87-22.72s11.07-7.81,19.46-7.81c2.71,0,5.39.37,8.04,1.11,2.64.73,4.99,1.96,7.05,3.67,2.06,1.71,3.73,3.98,5.01,6.82,1.28,2.83,1.92,6.35,1.92,10.54,0,1.32-.06,2.66-.17,4.02s-.33,2.82-.64,4.37h-36.35c0,3.26.41,6.32,1.22,9.15.82,2.83,2.04,5.3,3.67,7.4,1.63,2.1,3.69,3.75,6.18,4.95,2.48,1.2,5.39,1.81,8.74,1.81,2.71,0,5.48-.38,8.27-1.17s4.89-1.78,6.29-3.03l1.63,1.86h0Zm-21.32-46.37c-4.43,0-7.81,1.49-10.14,4.49s-3.73,8.25-4.19,15.79h25.63c.08-.7.14-1.37.17-2.04s.06-1.3.06-1.92c0-4.98-.93-8.94-2.8-11.88s-4.78-4.43-8.74-4.43Z"/>
          <path class="cls-5" d="m390.19,154.47h-25.05v-2.91c2.1-1.08,4.39-2.02,6.87-2.8v-27.61c0-5.91-.85-10.57-2.56-13.98s-4.81-5.13-9.32-5.13c-1.95,0-3.75.35-5.42,1.05s-3.15,1.65-4.43,2.85c-1.28,1.21-2.39,2.56-3.32,4.08s-1.67,3.09-2.21,4.72v34.02c2.41.47,4.74,1.4,6.99,2.8v2.91h-25.17v-2.91c1.95-1.01,4.51-1.95,7.69-2.8v-45.79l-7.69-.93v-3.03c2.02-.85,4.35-1.63,6.99-2.33s5.39-1.32,8.27-1.86h2.91v13.05h.12c1.63-3.58,3.98-6.64,7.05-9.2,3.06-2.56,6.78-3.85,11.13-3.85,3.11,0,5.88.37,8.33,1.11,2.45.73,4.49,2.04,6.12,3.9s2.88,4.37,3.73,7.52,1.28,7.13,1.28,11.94v29.48c3.11.55,5.67,1.48,7.69,2.8v2.91h0Z"/>
          <path class="cls-11" d="m393.92,99.13c2.95-1.92,6.06-3.29,9.32-4.09v-9.9c1.01-.78,2.19-1.54,3.55-2.27s2.7-1.37,4.02-1.92h2.91v15.26h17.48v6.06h-17.48v33.61c0,4.64.73,7.92,2.21,9.86,1.48,1.93,3.69,2.9,6.64,2.9,1.4,0,3.15-.09,5.24-.29s3.88-.56,5.36-1.11l.82,1.75c-.63.7-1.5,1.43-2.62,2.21-1.13.78-2.41,1.51-3.85,2.21s-3.01,1.28-4.72,1.75-3.46.7-5.24.7c-4.66,0-8.21-1.32-10.66-3.94-2.45-2.63-3.67-6.89-3.67-12.76v-36.89h-9.32v-3.13h0Z"/>
          <path class="cls-12" d="m444.37,131.4c0-4.89.12-9.69.35-14.39s.35-9.38.35-14.04l-7.69-.93v-3.03c2.48-.93,5.03-1.75,7.63-2.45s5.15-1.28,7.63-1.75h2.91c0,5.83-.12,11.62-.35,17.36s-.35,11.45-.35,17.13c0,3.03.17,5.74.52,8.16s.97,4.43,1.86,6.06c.9,1.63,2.12,2.89,3.67,3.79,1.55.9,3.53,1.34,5.94,1.34,3.5,0,6.43-1.26,8.8-3.79s4.22-5.8,5.53-9.85v-32.04l-7.57-.93v-3.03c2.41-.93,4.92-1.75,7.52-2.45s5.15-1.28,7.63-1.75h2.91v53.01l7.69.93v2.45c-2.25,1.01-4.52,1.9-6.82,2.68-2.3.78-4.68,1.36-7.17,1.75h-2.91l-.82-13.87h-.47c-.38,1.63-1.07,3.29-2.04,4.95s-2.24,3.18-3.79,4.54c-1.55,1.36-3.32,2.47-5.3,3.32s-4.14,1.28-6.47,1.28c-3.11,0-5.85-.37-8.21-1.11-2.38-.73-4.37-2.04-6-3.9s-2.88-4.37-3.73-7.52-1.28-7.13-1.28-11.94h0Z"/>
          <path class="cls-10" d="m530.71,104.95c-.85.47-1.92,1.42-3.2,2.85s-2.42,3.55-3.44,6.35v34.61c1.55.15,3.11.44,4.66.87s3.11,1.07,4.66,1.92v2.91h-27.5v-2.91c1.4-.78,2.71-1.36,3.96-1.75s2.48-.73,3.73-1.05v-45.79l-7.69-.93v-3.03c2.48-1.08,5.05-1.96,7.69-2.62,2.64-.66,5.16-1.19,7.57-1.57h2.91v12.35h.47c.7-1.55,1.69-3.11,2.97-4.66,1.28-1.55,2.76-2.95,4.43-4.19s3.5-2.19,5.48-2.85,4.02-.87,6.12-.64c.54,1.01,1.03,2.12,1.46,3.32s.83,2.47,1.22,3.79v3.03h-15.5,0Z"/>
          <path class="cls-8" d="m594.79,139.2c0,1.71.03,3.18.12,4.43.08,1.25.15,2.56.23,3.96l8.04,1.17v2.45c-1.95,1.01-4.1,1.9-6.47,2.68-2.38.78-4.64,1.36-6.82,1.75h-2.91c-.78-1.78-1.25-3.75-1.4-5.88s-.27-4.49-.35-7.05h-.58c-.31,1.55-.91,3.12-1.81,4.72s-2.06,3.01-3.5,4.25-3.12,2.25-5.07,3.03-4.16,1.17-6.64,1.17c-4.74,0-8.6-1.43-11.59-4.31s-4.49-6.64-4.49-11.3c0-3.58.72-6.5,2.16-8.8s3.55-4.1,6.35-5.42c2.8-1.32,6.26-2.27,10.37-2.85s8.89-1.03,14.33-1.34c.31-3.34.41-6.35.29-9.03s-.55-4.98-1.28-6.87-1.83-3.38-3.26-4.43c-1.43-1.05-3.32-1.57-5.65-1.57-1.08,0-2.31.06-3.67.17-1.36.12-2.7.44-4.02.99l-5.48,13.98h-3.03c-.78-2.33-1.46-4.74-2.04-7.22s-.96-4.93-1.11-7.34c2.95-1.78,6.23-3.18,9.85-4.19s7.63-1.51,12.06-1.51c3.96,0,7.13.56,9.5,1.69s4.17,2.59,5.42,4.37,2.06,3.76,2.45,5.94c.38,2.18.58,4.35.58,6.52,0,4.66-.09,9.15-.29,13.46-.2,4.31-.29,8.45-.29,12.41h0Zm-22.49,9.44c1.95,0,3.65-.38,5.13-1.17s2.71-1.71,3.73-2.8c1.01-1.08,1.83-2.19,2.45-3.32s1.05-2.07,1.28-2.85v-12.23c-4.51,0-8.19.23-11.07.7s-5.13,1.2-6.76,2.21-2.76,2.27-3.38,3.79-.93,3.24-.93,5.18c0,3.34.85,5.92,2.56,7.75s4.04,2.74,6.99,2.74h0Z"/>
          <path class="cls-9" d="m673.08,154.47h-25.05v-2.91c2.1-1.08,4.39-2.02,6.87-2.8v-27.61c0-5.91-.85-10.57-2.56-13.98s-4.81-5.13-9.32-5.13c-1.95,0-3.75.35-5.42,1.05s-3.15,1.65-4.43,2.85c-1.28,1.21-2.39,2.56-3.32,4.08-.93,1.51-1.67,3.09-2.21,4.72v34.02c2.41.47,4.74,1.4,6.99,2.8v2.91h-25.17v-2.91c1.95-1.01,4.51-1.95,7.69-2.8v-45.79l-7.69-.93v-3.03c2.02-.85,4.35-1.63,6.99-2.33s5.39-1.32,8.27-1.86h2.91v13.05h.12c1.63-3.58,3.98-6.64,7.05-9.2,3.06-2.56,6.78-3.85,11.13-3.85,3.11,0,5.88.37,8.33,1.11s4.49,2.04,6.12,3.9,2.88,4.37,3.73,7.52,1.28,7.13,1.28,11.94v29.48c3.11.55,5.67,1.48,7.69,2.8v2.91h0Z"/>
          <path class="cls-4" d="m722.83,139.2c0,1.71.03,3.18.12,4.43.08,1.25.15,2.56.23,3.96l8.04,1.17v2.45c-1.95,1.01-4.1,1.9-6.47,2.68-2.38.78-4.64,1.36-6.82,1.75h-2.91c-.78-1.78-1.25-3.75-1.4-5.88s-.27-4.49-.35-7.05h-.58c-.31,1.55-.91,3.12-1.81,4.72s-2.06,3.01-3.5,4.25-3.12,2.25-5.07,3.03-4.16,1.17-6.64,1.17c-4.74,0-8.6-1.43-11.59-4.31s-4.49-6.64-4.49-11.3c0-3.58.72-6.5,2.16-8.8s3.55-4.1,6.35-5.42c2.8-1.32,6.26-2.27,10.37-2.85s8.89-1.03,14.33-1.34c.31-3.34.41-6.35.29-9.03s-.55-4.98-1.28-6.87-1.83-3.38-3.26-4.43c-1.43-1.05-3.32-1.57-5.65-1.57-1.08,0-2.31.06-3.67.17-1.36.12-2.7.44-4.02.99l-5.48,13.98h-3.03c-.78-2.33-1.46-4.74-2.04-7.22s-.96-4.93-1.11-7.34c2.95-1.78,6.23-3.18,9.85-4.19s7.63-1.51,12.06-1.51c3.96,0,7.13.56,9.5,1.69s4.17,2.59,5.42,4.37,2.06,3.76,2.45,5.94c.38,2.18.58,4.35.58,6.52,0,4.66-.09,9.15-.29,13.46-.2,4.31-.29,8.45-.29,12.41h0Zm-22.49,9.44c1.95,0,3.65-.38,5.13-1.17s2.71-1.71,3.73-2.8c1.01-1.08,1.83-2.19,2.45-3.32s1.05-2.07,1.28-2.85v-12.23c-4.51,0-8.19.23-11.07.7s-5.13,1.2-6.76,2.21-2.76,2.27-3.38,3.79-.93,3.24-.93,5.18c0,3.34.85,5.92,2.56,7.75s4.04,2.74,6.99,2.74h0Z"/>
        </g>
      </g>
    </g>
  </g>
</svg>