<?xml version="1.0" encoding="UTF-8"?>
<svg id="Layer_2" data-name="Layer 2" xmlns="http://www.w3.org/2000/svg" xmlns:xlink="http://www.w3.org/1999/xlink" viewBox="0 0 462.29 362.75">
  <defs>
    <style>
      .cls-1 {
        font-family: PTSerif-Regular, 'PT Serif';
        font-size: 100px;
      }

      .cls-2 {
        letter-spacing: -.09em;
      }

      .cls-3 {
        letter-spacing: 0em;
      }

      .cls-4 {
        fill: url(#linear-gradient-2);
        stroke-width: 0px;
      }

      .cls-5 {
        fill: url(#linear-gradient);
        stroke: #adbfed;
        stroke-miterlimit: 10;
      }
    </style>
    <linearGradient id="linear-gradient" x1="107.84" y1="125.52" x2="357.86" y2="125.52" gradientUnits="userSpaceOnUse">
      <stop offset="0" stop-color="#adbfed"/>
      <stop offset="1" stop-color="#fac3eb"/>
    </linearGradient>
    <linearGradient id="linear-gradient-2" x1="229.9" y1="130.3" x2="230.08" y2="454.01" gradientUnits="userSpaceOnUse">
      <stop offset=".46" stop-color="#adbfed"/>
      <stop offset=".49" stop-color="#c5c0ec"/>
      <stop offset=".58" stop-color="#fac3eb"/>
    </linearGradient>
  </defs>
  <g id="Capa_1" data-name="Capa 1">
    <path class="cls-5" d="m348.64,1.11l-26.46,12.04c-1.69.78-3.26,1.85-4.59,3.18l-43.12,43.14-148.48-17.8c-2.68-.31-5.4.6-7.3,2.53l-8.26,8.26c-4.38,4.38-3.02,11.78,2.63,14.31l106.41,47.7-30.55,30.55h-53.36c-2.35,0-4.59.94-6.26,2.58l-4.46,4.48c-4.43,4.43-2.97,11.91,2.76,14.36l45.02,19.29,19.29,45.02c2.45,5.73,9.96,7.19,14.36,2.76l4.48-4.48c1.67-1.67,2.58-3.91,2.58-6.26v-53.36l30.55-30.55,47.7,106.43c2.53,5.66,9.93,7.01,14.31,2.63l8.26-8.26c1.93-1.93,2.84-4.61,2.53-7.3l-17.83-148.48,43.14-43.14c1.33-1.33,2.4-2.87,3.18-4.59l12.04-26.46c2.53-5.45-3.1-11.1-8.6-8.6Z"/>
    <g>
      <text class="cls-1" transform="translate(0 335.55)"><tspan class="cls-2" x="0" y="0">V</tspan><tspan class="cls-3" x="59.3" y="0">enturana</tspan></text>
      <g>
        <path class="cls-4" d="m54.5,270.95c-1.6-.33-3.1-.72-4.5-1.15-1.4-.43-2.77-.88-4.1-1.35v-2.9h22.5v2.9c-1.93,1.07-4.33,1.9-7.2,2.5l-22.6,64.6-5.5,1.2-25.5-65.8c-1.33-.33-2.63-.72-3.9-1.15-1.27-.43-2.5-.88-3.7-1.35v-2.9h26.5v2.9c-1.13.47-2.4.92-3.8,1.35-1.4.43-2.87.82-4.4,1.15l17.1,45.7,2.1,8h.2l2-8.2,14.8-45.5Z"/>
        <path class="cls-4" d="m103.9,328.55c-.53,1.13-1.37,2.2-2.5,3.2-1.13,1-2.43,1.87-3.9,2.6-1.47.73-3.07,1.32-4.8,1.75-1.73.43-3.5.65-5.3.65-3.93,0-7.4-.62-10.4-1.85-3-1.23-5.5-3-7.5-5.3s-3.52-5.05-4.55-8.25c-1.04-3.2-1.55-6.8-1.55-10.8,0-8.53,1.97-15.03,5.9-19.5,3.93-4.47,9.5-6.7,16.7-6.7,2.33,0,4.63.32,6.9.95,2.27.63,4.28,1.68,6.05,3.15,1.77,1.47,3.2,3.42,4.3,5.85,1.1,2.43,1.65,5.45,1.65,9.05,0,1.13-.05,2.28-.15,3.45-.1,1.17-.28,2.42-.55,3.75h-31.2c0,2.8.35,5.42,1.05,7.85.7,2.43,1.75,4.55,3.15,6.35,1.4,1.8,3.17,3.22,5.3,4.25,2.13,1.03,4.63,1.55,7.5,1.55,2.33,0,4.7-.33,7.1-1,2.4-.67,4.2-1.53,5.4-2.6l1.4,1.6Zm-18.3-39.8c-3.8,0-6.7,1.28-8.7,3.85-2,2.57-3.2,7.08-3.6,13.55h22c.07-.6.12-1.18.15-1.75.03-.57.05-1.12.05-1.65,0-4.27-.8-7.67-2.4-10.2-1.6-2.53-4.1-3.8-7.5-3.8Z"/>
        <path class="cls-4" d="m167.3,335.55h-21.5v-2.5c1.8-.93,3.77-1.73,5.9-2.4v-23.7c0-5.07-.73-9.07-2.2-12-1.47-2.93-4.13-4.4-8-4.4-1.67,0-3.22.3-4.65.9-1.43.6-2.7,1.42-3.8,2.45-1.1,1.04-2.05,2.2-2.85,3.5-.8,1.3-1.43,2.65-1.9,4.05v29.2c2.07.4,4.07,1.2,6,2.4v2.5h-21.6v-2.5c1.67-.87,3.87-1.67,6.6-2.4v-39.3l-6.6-.8v-2.6c1.73-.73,3.73-1.4,6-2,2.27-.6,4.63-1.13,7.1-1.6h2.5v11.2h.1c1.4-3.07,3.42-5.7,6.05-7.9,2.63-2.2,5.82-3.3,9.55-3.3,2.67,0,5.05.32,7.15.95,2.1.63,3.85,1.75,5.25,3.35,1.4,1.6,2.47,3.75,3.2,6.45.73,2.7,1.1,6.12,1.1,10.25v25.3c2.67.47,4.87,1.27,6.6,2.4v2.5Z"/>
        <path class="cls-4" d="m170.5,288.06c2.53-1.65,5.2-2.82,8-3.51v-8.5c.87-.67,1.88-1.32,3.05-1.95,1.17-.63,2.32-1.18,3.45-1.65h2.5v13.1h15v5.2h-15v28.85c0,3.98.63,6.8,1.9,8.46,1.27,1.66,3.17,2.49,5.7,2.49,1.2,0,2.7-.08,4.5-.25,1.8-.17,3.33-.48,4.6-.95l.7,1.5c-.54.6-1.29,1.23-2.25,1.9-.97.67-2.07,1.3-3.3,1.9-1.23.6-2.58,1.1-4.05,1.5-1.47.4-2.97.6-4.5.6-4,0-7.05-1.13-9.15-3.38-2.1-2.26-3.15-5.91-3.15-10.95v-31.66h-8v-2.69Z"/>
        <path class="cls-4" d="m213.8,315.75c0-4.2.1-8.32.3-12.35.2-4.03.3-8.05.3-12.05l-6.6-.8v-2.6c2.13-.8,4.32-1.5,6.55-2.1,2.23-.6,4.42-1.1,6.55-1.5h2.5c0,5-.1,9.97-.3,14.9-.2,4.93-.3,9.83-.3,14.7,0,2.6.15,4.93.45,7,.3,2.07.83,3.8,1.6,5.2.77,1.4,1.82,2.48,3.15,3.25,1.33.77,3.03,1.15,5.1,1.15,3,0,5.52-1.08,7.55-3.25,2.03-2.17,3.62-4.98,4.75-8.45v-27.5l-6.5-.8v-2.6c2.07-.8,4.22-1.5,6.45-2.1,2.23-.6,4.42-1.1,6.55-1.5h2.5v45.5l6.6.8v2.1c-1.93.87-3.88,1.63-5.85,2.3-1.97.67-4.02,1.17-6.15,1.5h-2.5l-.7-11.9h-.4c-.33,1.4-.92,2.82-1.75,4.25-.83,1.43-1.92,2.73-3.25,3.9-1.33,1.17-2.85,2.12-4.55,2.85-1.7.73-3.55,1.1-5.55,1.1-2.67,0-5.02-.32-7.05-.95-2.04-.63-3.75-1.75-5.15-3.35-1.4-1.6-2.47-3.75-3.2-6.45-.73-2.7-1.1-6.12-1.1-10.25Z"/>
        <path class="cls-4" d="m287.9,293.05c-.73.4-1.65,1.22-2.75,2.45-1.1,1.23-2.08,3.05-2.95,5.45v29.7c1.33.13,2.67.38,4,.75,1.33.37,2.67.92,4,1.65v2.5h-23.6v-2.5c1.2-.67,2.33-1.17,3.4-1.5,1.07-.33,2.13-.63,3.2-.9v-39.3l-6.6-.8v-2.6c2.13-.93,4.33-1.68,6.6-2.25,2.27-.57,4.43-1.02,6.5-1.35h2.5v10.6h.4c.6-1.33,1.45-2.67,2.55-4,1.1-1.33,2.37-2.53,3.8-3.6,1.43-1.07,3-1.88,4.7-2.45,1.7-.57,3.45-.75,5.25-.55.46.87.88,1.82,1.25,2.85.37,1.03.71,2.12,1.05,3.25v2.6h-13.3Z"/>
        <path class="cls-4" d="m342.9,322.45c0,1.47.03,2.73.1,3.8.07,1.07.13,2.2.2,3.4l6.9,1v2.1c-1.67.87-3.52,1.63-5.55,2.3-2.04.67-3.98,1.17-5.85,1.5h-2.5c-.67-1.53-1.07-3.22-1.2-5.05-.13-1.83-.23-3.85-.3-6.05h-.5c-.27,1.33-.78,2.68-1.55,4.05-.77,1.37-1.77,2.58-3,3.65-1.23,1.07-2.68,1.93-4.35,2.6-1.67.67-3.57,1-5.7,1-4.07,0-7.38-1.23-9.95-3.7-2.57-2.47-3.85-5.7-3.85-9.7,0-3.07.62-5.58,1.85-7.55,1.23-1.97,3.05-3.52,5.45-4.65,2.4-1.13,5.37-1.95,8.9-2.45,3.53-.5,7.63-.88,12.3-1.15.27-2.87.35-5.45.25-7.75-.1-2.3-.47-4.27-1.1-5.9-.63-1.63-1.57-2.9-2.8-3.8-1.23-.9-2.85-1.35-4.85-1.35-.93,0-1.98.05-3.15.15-1.17.1-2.32.38-3.45.85l-4.7,12h-2.6c-.67-2-1.25-4.07-1.75-6.2-.5-2.13-.82-4.23-.95-6.3,2.53-1.53,5.35-2.73,8.45-3.6,3.1-.87,6.55-1.3,10.35-1.3,3.4,0,6.12.48,8.15,1.45,2.03.97,3.58,2.22,4.65,3.75,1.07,1.53,1.77,3.23,2.1,5.1.33,1.87.5,3.73.5,5.6,0,4-.08,7.85-.25,11.55-.17,3.7-.25,7.25-.25,10.65Zm-19.3,8.1c1.67,0,3.13-.33,4.4-1,1.27-.67,2.33-1.47,3.2-2.4.87-.93,1.57-1.88,2.1-2.85.53-.97.9-1.78,1.1-2.45v-10.5c-3.87,0-7.03.2-9.5.6-2.47.4-4.4,1.03-5.8,1.9-1.4.87-2.37,1.95-2.9,3.25-.53,1.3-.8,2.78-.8,4.45,0,2.87.73,5.08,2.2,6.65,1.47,1.57,3.47,2.35,6,2.35Z"/>
        <path class="cls-4" d="m410.09,335.55h-21.5v-2.5c1.8-.93,3.77-1.73,5.9-2.4v-23.7c0-5.07-.73-9.07-2.2-12-1.47-2.93-4.13-4.4-8-4.4-1.67,0-3.22.3-4.65.9-1.43.6-2.7,1.42-3.8,2.45-1.1,1.04-2.05,2.2-2.85,3.5-.8,1.3-1.43,2.65-1.9,4.05v29.2c2.07.4,4.07,1.2,6,2.4v2.5h-21.6v-2.5c1.67-.87,3.87-1.67,6.6-2.4v-39.3l-6.6-.8v-2.6c1.73-.73,3.73-1.4,6-2,2.27-.6,4.63-1.13,7.1-1.6h2.5v11.2h.1c1.4-3.07,3.42-5.7,6.05-7.9,2.63-2.2,5.82-3.3,9.55-3.3,2.67,0,5.05.32,7.15.95,2.1.63,3.85,1.75,5.25,3.35,1.4,1.6,2.47,3.75,3.2,6.45.73,2.7,1.1,6.12,1.1,10.25v25.3c2.67.47,4.87,1.27,6.6,2.4v2.5Z"/>
        <path class="cls-4" d="m452.79,322.45c0,1.47.03,2.73.1,3.8.07,1.07.13,2.2.2,3.4l6.9,1v2.1c-1.67.87-3.52,1.63-5.55,2.3-2.04.67-3.98,1.17-5.85,1.5h-2.5c-.67-1.53-1.07-3.22-1.2-5.05-.13-1.83-.23-3.85-.3-6.05h-.5c-.27,1.33-.78,2.68-1.55,4.05-.77,1.37-1.77,2.58-3,3.65-1.23,1.07-2.68,1.93-4.35,2.6-1.67.67-3.57,1-5.7,1-4.07,0-7.38-1.23-9.95-3.7-2.57-2.47-3.85-5.7-3.85-9.7,0-3.07.62-5.58,1.85-7.55,1.23-1.97,3.05-3.52,5.45-4.65,2.4-1.13,5.37-1.95,8.9-2.45,3.53-.5,7.63-.88,12.3-1.15.27-2.87.35-5.45.25-7.75-.1-2.3-.47-4.27-1.1-5.9-.63-1.63-1.57-2.9-2.8-3.8-1.23-.9-2.85-1.35-4.85-1.35-.93,0-1.98.05-3.15.15-1.17.1-2.32.38-3.45.85l-4.7,12h-2.6c-.67-2-1.25-4.07-1.75-6.2-.5-2.13-.82-4.23-.95-6.3,2.53-1.53,5.35-2.73,8.45-3.6,3.1-.87,6.55-1.3,10.35-1.3,3.4,0,6.12.48,8.15,1.45,2.03.97,3.58,2.22,4.65,3.75,1.07,1.53,1.77,3.23,2.1,5.1.33,1.87.5,3.73.5,5.6,0,4-.08,7.85-.25,11.55-.17,3.7-.25,7.25-.25,10.65Zm-19.3,8.1c1.67,0,3.13-.33,4.4-1,1.27-.67,2.33-1.47,3.2-2.4.87-.93,1.57-1.88,2.1-2.85.53-.97.9-1.78,1.1-2.45v-10.5c-3.87,0-7.03.2-9.5.6-2.47.4-4.4,1.03-5.8,1.9-1.4.87-2.37,1.95-2.9,3.25-.53,1.3-.8,2.78-.8,4.45,0,2.87.73,5.08,2.2,6.65,1.47,1.57,3.47,2.35,6,2.35Z"/>
      </g>
    </g>
  </g>
</svg>